<?xml version="1.0" standalone="no"?>
<!DOCTYPE svg PUBLIC "-//W3C//DTD SVG 20010904//EN"
 "http://www.w3.org/TR/2001/REC-SVG-20010904/DTD/svg10.dtd">
<svg version="1.0" xmlns="http://www.w3.org/2000/svg"
 width="512.000000pt" height="512.000000pt" viewBox="0 0 512.000000 512.000000"
 preserveAspectRatio="xMidYMid meet">

<g transform="translate(0.000000,512.000000) scale(0.100000,-0.100000)"
fill="#000000" stroke="none">
<path d="M2110 4301 c-670 -387 -989 -576 -997 -592 -9 -17 -13 -82 -13 -211
l0 -188 -369 0 -370 0 -20 -26 c-27 -35 -26 -59 4 -89 l24 -25 366 0 365 0 0
-100 0 -100 -249 0 c-226 0 -251 -2 -271 -18 -30 -25 -30 -80 1 -104 19 -16
48 -18 270 -18 l249 0 0 -100 0 -100 -400 0 c-387 0 -401 -1 -420 -20 -26 -26
-26 -74 0 -100 19 -19 33 -20 420 -20 l400 0 0 -100 0 -100 -249 0 c-222 0
-251 -2 -270 -18 -31 -24 -31 -79 -1 -104 20 -16 45 -18 271 -18 l249 0 0
-100 0 -100 -365 0 -366 0 -24 -25 c-30 -30 -31 -54 -4 -89 l20 -26 370 0 369
0 0 -187 c0 -130 4 -195 13 -212 8 -16 330 -207 1001 -594 935 -539 990 -570
1017 -560 56 21 1944 1115 1967 1140 l22 24 0 1139 0 1139 -22 24 c-13 14
-448 270 -968 570 -1006 579 -1002 577 -1022 577 -7 0 -456 -256 -998 -569z
m2063 -196 c400 -231 726 -423 725 -427 -5 -15 -542 -319 -555 -314 -18 7
-1766 1016 -1776 1026 -5 4 116 79 268 167 l277 160 167 -96 c91 -53 494 -285
894 -516z m-865 -307 c488 -281 890 -514 894 -517 8 -7 -373 -231 -391 -231
-5 0 -106 55 -223 123 -117 68 -512 296 -878 506 -366 211 -671 389 -678 396
-10 9 27 35 180 123 106 61 196 112 201 112 4 0 407 -230 895 -512z m-528
-320 c487 -281 886 -512 888 -513 1 -1 -123 -74 -277 -163 l-279 -161 -459
265 c-252 145 -655 378 -895 517 -241 138 -438 254 -437 257 0 12 546 318 559
314 8 -3 413 -235 900 -516z m-634 -441 l889 -514 3 -1037 c1 -639 -1 -1036
-7 -1034 -5 1 -410 235 -900 517 l-891 515 0 163 0 163 69 0 c63 0 71 2 90 26
27 35 26 59 -4 89 -21 22 -33 25 -90 25 l-65 0 0 100 0 100 168 0 c135 0 172
3 190 16 29 20 30 76 2 104 -18 18 -33 20 -190 20 l-170 0 0 100 0 100 65 0
c57 0 69 3 90 25 32 31 32 59 0 90 -21 22 -33 25 -90 25 l-65 0 0 100 0 100
170 0 c157 0 172 2 190 20 28 28 27 84 -2 104 -18 13 -55 16 -190 16 l-168 0
0 100 0 100 65 0 c57 0 69 3 90 25 30 30 31 54 4 89 -19 24 -27 26 -90 26
l-69 0 0 120 c0 66 4 120 9 120 5 0 408 -231 897 -513z m2832 -523 l-3 -1036
-890 -514 c-490 -282 -893 -514 -898 -514 -4 0 -6 466 -5 1036 l3 1036 275
158 275 158 3 -446 c2 -442 2 -446 24 -469 12 -13 33 -23 47 -23 26 0 546 294
589 333 l22 20 0 491 0 491 273 157 c149 87 275 158 280 158 4 0 6 -466 5
-1036z m-705 -195 c-5 -5 -75 -47 -158 -95 -82 -47 -169 -97 -192 -111 l-43
-25 0 419 1 418 197 112 197 113 3 -412 c1 -226 -1 -415 -5 -419z"/>
<path d="M22 2607 c-28 -30 -28 -68 1 -95 32 -30 128 -31 157 -2 26 26 26 74
0 100 -30 30 -129 29 -158 -3z"/>
</g>
</svg>
